# xmcd
#
# Track frame offsets: 
#        150
#        16735
#        37881
#        55323
#        76921
#        94465
#        112879
#        134582
#        153012
#        170684
#        195639
#        212870
#        233991
#        247719
#
# Disc length: 3634 seconds
#
# Revision: 3
# Processed by: cddbd v1.5.1PL0 Copyright (c) Steve Scherf et al.
# Submitted via: ExactAudioCopy v0.95a5
#
DISCID=ae0e300e
DTITLE=Backstreet Boys - Backstreet Boys
DYEAR=1999
DGENRE=Rock
TTITLE0=We've Got It Goin' On
TTITLE1=Anywhere for You
TTITLE2=Get Down (You're the One for Me)
TTITLE3=I'll Never Break Your Heart
TTITLE4=Quit Playing Games (With My Heart)
TTITLE5=Boys Will Be Boys
TTITLE6=Just to Be Close to You
TTITLE7=I Wanna Be with You
TTITLE8=Every Time I Close My Eyes
TTITLE9=Darlin'
TTITLE10=Let's Have a Party
TTITLE11=Roll With It
TTITLE12=Nobody But You
TTITLE13=Lay Down Beside Me [Special Bonus Track]
EXTD=
EXTT0=
EXTT1=
EXTT2=
EXTT3=
EXTT4=
EXTT5=
EXTT6=
EXTT7=
EXTT8=
EXTT9=
EXTT10=
EXTT11=
EXTT12=
EXTT13=
PLAYORDER=
